<?xml version="1.0" encoding="UTF-8" standalone="no"?>
<svg
   height="512"
   style="clip-rule:evenodd;fill-rule:evenodd;stroke-linejoin:round;stroke-miterlimit:2"
   version="1.1"
   viewBox="0 0 512 512"
   width="512"
   xml:space="preserve"
   id="svg32"
   sodipodi:docname="linkedin_icon_golden.svg"
   inkscape:version="1.2 (dc2aedaf03, 2022-05-15)"
   xmlns:inkscape="http://www.inkscape.org/namespaces/inkscape"
   xmlns:sodipodi="http://sodipodi.sourceforge.net/DTD/sodipodi-0.dtd"
   xmlns="http://www.w3.org/2000/svg"
   xmlns:svg="http://www.w3.org/2000/svg"><defs
     id="defs36" /><sodipodi:namedview
     id="namedview34"
     pagecolor="#272727"
     bordercolor="#000000"
     borderopacity="0.25"
     inkscape:showpageshadow="2"
     inkscape:pageopacity="0"
     inkscape:pagecheckerboard="false"
     inkscape:deskcolor="#000000"
     showgrid="false"
     showborder="true"
     inkscape:zoom="1.53125"
     inkscape:cx="200.4898"
     inkscape:cy="256.97959"
     inkscape:window-width="1920"
     inkscape:window-height="1001"
     inkscape:window-x="-9"
     inkscape:window-y="-9"
     inkscape:window-maximized="1"
     inkscape:current-layer="svg32"
     shape-rendering="auto" /><ellipse
     style="fill:#ffd500;fill-opacity:1;stroke:#000000;stroke-width:1.59967;stroke-dasharray:none;stroke-opacity:1"
     id="path23485"
     cx="257.30612"
     cy="255.67346"
     rx="232.99301"
     ry="201.9726" /><path
     d="M 256,0 C 397.29,0 512,114.71 512,256 512,397.29 397.29,512 256,512 114.71,512 0,397.29 0,256 0,114.71 114.71,0 256,0 Z M 175.963,399.871 V 199.95 h -66.464 v 199.921 z m 239.62,0 V 285.225 c 0,-61.409 -32.787,-89.976 -76.509,-89.976 -35.255,0 -51.047,19.389 -59.889,33.007 V 199.95 h -66.447 c 0.881,18.757 0,199.921 0,199.921 h 66.446 v -111.65 c 0,-5.976 0.43,-11.95 2.191,-16.221 4.795,-11.935 15.737,-24.299 34.095,-24.299 24.034,0 33.663,18.34 33.663,45.204 V 399.871 Z M 143.18,103.55 c -22.74,0 -37.597,14.95 -37.597,34.545 0,19.182 14.405,34.544 36.717,34.544 h 0.429 c 23.175,0 37.6,-15.362 37.6,-34.544 C 179.899,118.5 165.905,103.55 143.18,103.55 Z"
     id="path30"
     style="display:inline;mix-blend-mode:normal;fill:#272727;fill-opacity:1" /></svg>
