<?xml version="1.0" encoding="UTF-8" standalone="no"?>
<svg
   height="512"
   id="Layer_1"
   version="1.1"
   viewBox="0 4 511.99999 511.99999"
   width="512"
   xml:space="preserve"
   sodipodi:docname="mail_icon_white.svg"
   inkscape:version="1.2 (dc2aedaf03, 2022-05-15)"
   xmlns:inkscape="http://www.inkscape.org/namespaces/inkscape"
   xmlns:sodipodi="http://sodipodi.sourceforge.net/DTD/sodipodi-0.dtd"
   xmlns="http://www.w3.org/2000/svg"
   xmlns:svg="http://www.w3.org/2000/svg"><defs
     id="defs15586" /><sodipodi:namedview
     id="namedview15584"
     pagecolor="#272727"
     bordercolor="#000000"
     borderopacity="0.25"
     inkscape:showpageshadow="2"
     inkscape:pageopacity="0"
     inkscape:pagecheckerboard="0"
     inkscape:deskcolor="#d1d1d1"
     showgrid="false"
     inkscape:zoom="1.2447889"
     inkscape:cx="176.73679"
     inkscape:cy="248.63653"
     inkscape:window-width="1920"
     inkscape:window-height="1001"
     inkscape:window-x="-9"
     inkscape:window-y="-9"
     inkscape:window-maximized="1"
     inkscape:current-layer="Layer_1"
     showguides="false" /><circle
     style="clip-rule:evenodd;fill:#272727;fill-opacity:1;fill-rule:evenodd;stroke:#000000;stroke-width:0;stroke-linejoin:round;stroke-miterlimit:2;stroke-dasharray:none"
     id="path30333"
     cx="255.13699"
     cy="260.71313"
     r="256" /><path
     d="m 421.17184,173.55632 0.006,-0.006 -0.006,0.005 v -8.01487 c 0,-15.20929 -12.18203,-27.65399 -27.07097,-27.65399 l -0.006,0.006 -0.0132,0.0136 0.0266,-0.0202 H 117.84876 l 0.10669,0.0886 -0.10669,-0.0813 c -14.88827,0 -27.070974,12.44471 -27.070974,27.65469 v 188.91297 c 0,15.20929 12.182044,27.65332 27.070974,27.65332 h 9.63683 256.1634 v -0.006 c 28.39824,-0.33712 36.9278,-7.5153 37.57322,-27.62489 z m -47.23985,-28.90159 -118.3985,89.0923 -117.6285,-89.0923 z m -239.75835,69.22504 109.67281,77.17288 0.11,0.0778 -109.84576,78.02784 z m 2.8348,161.46506 112.74945,-80.09046 1.97801,1.40599 c 1.13707,0.80825 2.46104,1.21306 3.785,1.21306 1.31337,0 5.81338,-2.64003 5.81338,-2.64003 l 112.77994,80.11144 z m 239.93461,-6.23455 -109.77883,-77.9791 61.22427,-43.08127 48.55456,-34.16608 z"
     id="path15581-0"
     style="clip-rule:evenodd;fill:#fffffd;fill-opacity:1;fill-rule:evenodd;stroke-width:6.6975;stroke-linejoin:round;stroke-miterlimit:2" /></svg>
